<svg width="21" height="21" viewBox="0 0 21 21" fill="none" xmlns="http://www.w3.org/2000/svg">
    <path d="M18.6751 7.80688L21 4.6892L6.36594 0L0 8.57997L2.32488 9.31503L0 12.4454L2.32488 13.1931L0 16.3108L14.6341 21L21 12.42L18.6751 11.685L21 8.55461L18.6751 7.80688ZM1.49638 7.97163L6.56884 1.15329L19.4952 5.28486L17.8043 7.54074L17.1618 8.41521L15.471 10.6711L14.82 11.5329L14.3973 12.1159L6.11232 9.46711L2.93358 8.45323L1.49638 7.97163ZM5.29227 9.23898L3.82126 8.77007L5.29227 9.23898ZM19.4952 13.0791L14.4227 19.8974L1.49638 15.7278L3.1872 13.4719L14.6341 17.1219L18.0157 12.5594L19.4952 13.0791ZM17.8043 11.4568L17.1618 12.3313L14.4312 15.9813L3.82126 12.5848L2.97585 12.3186L1.50483 11.8497L3.19565 9.59385L4.66667 10.0628L5.51208 10.3289L14.651 13.2565L15.7246 11.8117L16.3672 10.9372L18.058 8.68136L19.529 9.15027L17.8043 11.4568Z" fill="white"/>
</svg>
    